<svg version="1.1" xmlns="http://www.w3.org/2000/svg" width="32" height="32" viewBox="0 0 32 32">
    <path fill="#26A85D" d="M23.657 13.001l6.785-6.367-2.815 1.324 2.178-3.351c0 0-2.714 2.764-5.378 4.775-0.536 0.402-1.726 1.424-3.233 2.094-1.692 0.754-3.703 0.503-5.763-0.285-1.005-0.385-1.793-0.871-1.793-0.871-0.637-0.352-0.905-0.57-1.458-0.871-0.821-0.452-1.642-0.905-2.496-1.039-2.379-0.369-4.289 0.151-5.646 1.407 0 0-1.943 0.084-2.48 0.687l2.346 0.469c1.675 1.089 1.558 3.317 2.128 4.775 0.838 2.178 2.396 5.579 7.623 6.015 0.017 0 1.089-0.017-0.251 3.183h1.407c1.106-2.597 1.96-3.317 2.865-3.786 1.943-0.804 3.92-2.999 3.92-2.999h2.798l-1.608-1.508 2.145-2.882-1.19 0.335 1.625-1.575-1.709 0.469z"></path>
</svg>
